<?xml version="1.0" encoding="UTF-8"?>
<!DOCTYPE svg PUBLIC "-//W3C//DTD SVG 1.1//EN" "http://www.w3.org/Graphics/SVG/1.1/DTD/svg11.dtd">
<svg xmlns="http://www.w3.org/2000/svg" version="1.1" width="500px" height="500px" style="shape-rendering:geometricPrecision; text-rendering:geometricPrecision; image-rendering:optimizeQuality; fill-rule:evenodd; clip-rule:evenodd" xmlns:xlink="http://www.w3.org/1999/xlink">
<g><path style="opacity:1" fill="#49494c" d="M 326.5,164.5 C 327.911,166.914 329.911,168.581 332.5,169.5C 333.08,171.749 334.413,173.415 336.5,174.5C 338.167,175.5 339.5,176.833 340.5,178.5C 341.06,180.801 341.56,183.134 342,185.5C 344.035,187.24 345.869,189.074 347.5,191C 345.759,194.982 343.259,195.815 340,193.5C 339.751,194.624 339.251,195.624 338.5,196.5C 337.304,196.154 337.304,195.654 338.5,195C 334.944,194.222 333.61,192.222 334.5,189C 332.713,187.681 330.713,186.848 328.5,186.5C 327.167,184.833 325.833,183.167 324.5,181.5C 323.415,179.413 321.749,178.08 319.5,177.5C 307.03,169.265 293.697,162.598 279.5,157.5C 277.162,155.96 274.495,155.294 271.5,155.5C 252.48,152.101 233.813,153.435 215.5,159.5C 212.813,159.336 210.146,159.503 207.5,160C 208.167,160.333 208.833,160.667 209.5,161C 208.584,161.278 207.918,161.778 207.5,162.5C 204.881,162.768 202.381,162.435 200,161.5C 199.508,162.549 199.674,163.549 200.5,164.5C 198.577,165.308 196.577,165.808 194.5,166C 195.167,166.333 195.833,166.667 196.5,167C 194.392,167.36 192.392,168.027 190.5,169C 189.663,170.011 189.33,171.178 189.5,172.5C 183.332,176.095 177.665,180.428 172.5,185.5C 171.972,184.153 171.805,182.819 172,181.5C 173.925,180.12 175.759,178.62 177.5,177C 176.107,174.317 174.774,174.15 173.5,176.5C 172.445,172.472 170.111,171.472 166.5,173.5C 172.317,166.009 179.317,160.009 187.5,155.5C 189.966,154.702 191.966,153.369 193.5,151.5C 237.583,128.156 280.25,130.656 321.5,159C 323.373,160.704 325.04,162.537 326.5,164.5 Z"/></g>
<g><path style="opacity:0.31" fill="#9d9da0" d="M 193.5,151.5 C 191.966,153.369 189.966,154.702 187.5,155.5C 188.802,153.178 190.802,151.845 193.5,151.5 Z"/></g>
<g><path style="opacity:0.216" fill="#b9b9ba" d="M 271.5,155.5 C 274.495,155.294 277.162,155.96 279.5,157.5C 276.572,157.435 273.905,156.768 271.5,155.5 Z"/></g>
<g><path style="opacity:1" fill="#7c7c7d" d="M 215.5,159.5 C 213.11,161.02 210.443,162.02 207.5,162.5C 207.918,161.778 208.584,161.278 209.5,161C 208.833,160.667 208.167,160.333 207.5,160C 210.146,159.503 212.813,159.336 215.5,159.5 Z"/></g>
<g><path style="opacity:1" fill="#727173" d="M 207.5,162.5 C 201.535,165.818 195.535,169.151 189.5,172.5C 189.33,171.178 189.663,170.011 190.5,169C 192.392,168.027 194.392,167.36 196.5,167C 195.833,166.667 195.167,166.333 194.5,166C 196.577,165.808 198.577,165.308 200.5,164.5C 199.674,163.549 199.508,162.549 200,161.5C 202.381,162.435 204.881,162.768 207.5,162.5 Z"/></g>
<g><path style="opacity:0.478" fill="#8f8f91" d="M 249.5,163.5 C 250.209,162.596 251.209,162.263 252.5,162.5C 252.815,166.371 252.482,170.038 251.5,173.5C 252.069,169.671 251.402,166.337 249.5,163.5 Z"/></g>
<g><path style="opacity:0.016" fill="#a2a2a3" d="M 326.5,164.5 C 329.089,165.419 331.089,167.086 332.5,169.5C 329.911,168.581 327.911,166.914 326.5,164.5 Z"/></g>
<g><path style="opacity:0.871" fill="#636364" d="M 249.5,163.5 C 251.402,166.337 252.069,169.671 251.5,173.5C 251.19,174.738 250.69,174.738 250,173.5C 248.552,170.149 248.385,166.816 249.5,163.5 Z"/></g>
<g><path style="opacity:0.584" fill="#9c9c9c" d="M 332.5,169.5 C 334.587,170.585 335.92,172.251 336.5,174.5C 334.413,173.415 333.08,171.749 332.5,169.5 Z"/></g>
<g><path style="opacity:0.698" fill="#a0a0a1" d="M 319.5,177.5 C 321.749,178.08 323.415,179.413 324.5,181.5C 322.251,180.92 320.585,179.587 319.5,177.5 Z"/></g>
<g><path style="opacity:0.951" fill="#717173" d="M 212.5,185.5 C 211.211,183.752 209.711,183.419 208,184.5C 206.059,180.446 205.225,180.78 205.5,185.5C 202.658,182.68 203.325,180.68 207.5,179.5C 209.938,180.931 211.604,182.931 212.5,185.5 Z"/></g>
<g><path style="opacity:0.255" fill="#9ea0a1" d="M 297.5,185.5 C 297.475,181.716 295.808,180.716 292.5,182.5C 293.075,179.132 294.741,178.632 297.5,181C 298.801,182.616 298.801,184.116 297.5,185.5 Z"/></g>
<g><path style="opacity:0.227" fill="#b4b1b6" d="M 212.5,185.5 C 213.906,185.973 214.573,186.973 214.5,188.5C 213.094,188.027 212.427,187.027 212.5,185.5 Z"/></g>
<g><path style="opacity:0.986" fill="#535357" d="M 212.5,185.5 C 212.427,187.027 213.094,188.027 214.5,188.5C 214.95,195.341 212.783,196.007 208,190.5C 206.906,188.922 206.072,187.255 205.5,185.5C 205.225,180.78 206.059,180.446 208,184.5C 209.711,183.419 211.211,183.752 212.5,185.5 Z"/></g>
<g><path style="opacity:0.047" fill="#c5c4ce" d="M 296.5,187.5 C 295.878,192.177 293.544,193.844 289.5,192.5C 290.552,192.649 291.552,192.483 292.5,192C 293.733,190.333 295.067,188.833 296.5,187.5 Z"/></g>
<g><path style="opacity:1" fill="#4e4f53" d="M 297.5,185.5 C 297.672,186.492 297.338,187.158 296.5,187.5C 295.067,188.833 293.733,190.333 292.5,192C 291.552,192.483 290.552,192.649 289.5,192.5C 288.305,192.134 287.639,191.301 287.5,190C 288.317,186.847 289.983,184.347 292.5,182.5C 295.808,180.716 297.475,181.716 297.5,185.5 Z"/></g>
<g><path style="opacity:0.999" fill="#49484b" d="M 172.5,185.5 C 168.23,192.377 164.23,199.377 160.5,206.5C 157.921,207.228 155.254,207.728 152.5,208C 155.302,210.105 156.635,212.939 156.5,216.5C 155.969,221.62 154.969,226.62 153.5,231.5C 152.698,232.952 152.198,234.618 152,236.5C 151.5,242.825 151.334,249.158 151.5,255.5C 151.527,258.23 150.86,260.73 149.5,263C 149.925,265.913 151.258,267.413 153.5,267.5C 151.058,270.041 150.891,272.707 153,275.5C 154.342,274.098 155.176,274.431 155.5,276.5C 155.32,277.554 154.987,278.554 154.5,279.5C 156.333,280.968 156.666,282.635 155.5,284.5C 154.026,283.564 153.026,282.23 152.5,280.5C 151.675,279.614 150.675,279.281 149.5,279.5C 149.54,276.575 148.707,273.909 147,271.5C 146,272.833 145,274.167 144,275.5C 142.512,273.84 140.679,272.84 138.5,272.5C 134.531,257.173 134.531,241.839 138.5,226.5C 139.924,224.485 140.59,222.152 140.5,219.5C 145.059,201.701 153.726,186.368 166.5,173.5C 170.111,171.472 172.445,172.472 173.5,176.5C 174.774,174.15 176.107,174.317 177.5,177C 175.759,178.62 173.925,180.12 172,181.5C 171.805,182.819 171.972,184.153 172.5,185.5 Z"/></g>
<g><path style="opacity:1" fill="#58585a" d="M 340.5,178.5 C 344.911,183.648 348.578,189.314 351.5,195.5C 350.518,194.859 349.518,194.193 348.5,193.5C 346.555,197.114 343.888,200.114 340.5,202.5C 341.167,202.833 341.833,203.167 342.5,203.5C 341.873,204.417 341.539,205.417 341.5,206.5C 337.678,199.529 333.345,192.862 328.5,186.5C 330.713,186.848 332.713,187.681 334.5,189C 333.61,192.222 334.944,194.222 338.5,195C 337.304,195.654 337.304,196.154 338.5,196.5C 339.251,195.624 339.751,194.624 340,193.5C 343.259,195.815 345.759,194.982 347.5,191C 345.869,189.074 344.035,187.24 342,185.5C 341.56,183.134 341.06,180.801 340.5,178.5 Z"/></g>
<g><path style="opacity:1" fill="#636168" d="M 160.5,206.5 C 159.342,209.989 158.009,213.322 156.5,216.5C 156.635,212.939 155.302,210.105 152.5,208C 155.254,207.728 157.921,207.228 160.5,206.5 Z"/></g>
<g><path style="opacity:0.999" fill="#48464b" d="M 246.5,232.5 C 244.412,231.061 242.079,230.394 239.5,230.5C 239.665,233.518 239.498,236.518 239,239.5C 238.259,240.641 237.425,240.641 236.5,239.5C 235.808,240.025 235.308,240.692 235,241.5C 233.164,239.396 230.998,239.062 228.5,240.5C 229.376,241.251 230.376,241.751 231.5,242C 230.748,242.671 230.414,243.504 230.5,244.5C 228.852,243.19 227.186,241.857 225.5,240.5C 224.482,241.193 223.482,241.859 222.5,242.5C 221.603,241.402 220.77,241.402 220,242.5C 218.011,244.812 216.844,247.478 216.5,250.5C 213.805,253.526 211.138,256.526 208.5,259.5C 206.602,258.911 204.602,258.744 202.5,259C 201.072,255.526 201.572,255.026 204,257.5C 205.416,256.282 205.249,254.949 203.5,253.5C 205.365,249.674 205.865,245.674 205,241.5C 202.467,246.756 201.3,246.589 201.5,241C 201.409,238.225 202.076,235.725 203.5,233.5C 204.701,231.091 206.367,229.091 208.5,227.5C 209.906,227.027 210.573,226.027 210.5,224.5C 215.18,217.83 220.346,211.497 226,205.5C 233.822,213.842 240.656,222.842 246.5,232.5 Z"/></g>
<g><path style="opacity:0.31" fill="#b7b7b8" d="M 310.5,209.5 C 308.938,209.733 307.605,210.4 306.5,211.5C 306.958,208.691 308.291,208.024 310.5,209.5 Z"/></g>
<g><path style="opacity:0.969" fill="#787979" d="M 319.5,207.5 C 318.35,212.068 316.016,213.068 312.5,210.5C 312.5,209.833 312.167,209.5 311.5,209.5C 311.297,207.61 311.963,206.11 313.5,205C 315.81,204.503 318.143,204.337 320.5,204.5C 320.737,205.791 320.404,206.791 319.5,207.5 Z"/></g>
<g><path style="opacity:1" fill="#434443" d="M 319.5,207.5 C 318.162,209.113 316.495,209.613 314.5,209C 315.833,208 315.833,207 314.5,206C 315.333,205.833 316.167,205.667 317,205.5C 318.376,205.684 319.209,206.351 319.5,207.5 Z"/></g>
<g><path style="opacity:0.282" fill="#abacac" d="M 310.5,209.5 C 310.833,209.5 311.167,209.5 311.5,209.5C 312.167,209.5 312.5,209.833 312.5,210.5C 312.5,211.167 312.5,211.833 312.5,212.5C 311.094,212.027 310.427,211.027 310.5,209.5 Z"/></g>
<g><path style="opacity:0.997" fill="#48484b" d="M 351.5,195.5 C 356.382,203.131 359.715,211.465 361.5,220.5C 361.294,223.495 361.96,226.162 363.5,228.5C 364.605,240.467 364.771,252.467 364,264.5C 363.235,271.898 361.402,278.898 358.5,285.5C 356.887,285.944 355.72,286.944 355,288.5C 353.56,292.041 352.726,295.708 352.5,299.5C 352.5,299.833 352.5,300.167 352.5,300.5C 351.5,300.5 350.5,300.5 349.5,300.5C 349.627,303.245 348.46,305.245 346,306.5C 344.814,304.323 342.981,303.323 340.5,303.5C 339.737,306.141 339.57,308.808 340,311.5C 342.107,307.485 342.773,307.818 342,312.5C 341.167,314 340,315.167 338.5,316C 338.833,317 339.167,318 339.5,319C 338.423,319.47 337.423,319.303 336.5,318.5C 336.005,316.518 335.505,314.518 335,312.5C 332.667,313.833 330.333,313.833 328,312.5C 326.092,315.332 325.259,314.999 325.5,311.5C 326.552,311.649 327.552,311.483 328.5,311C 328.167,310.667 327.833,310.333 327.5,310C 329.002,309.417 330.335,308.584 331.5,307.5C 330.637,306.274 330.637,304.94 331.5,303.5C 331.427,301.973 332.094,300.973 333.5,300.5C 334.906,300.027 335.573,299.027 335.5,297.5C 336.906,297.027 337.573,296.027 337.5,294.5C 350.657,265.751 351.991,236.417 341.5,206.5C 341.539,205.417 341.873,204.417 342.5,203.5C 341.833,203.167 341.167,202.833 340.5,202.5C 343.888,200.114 346.555,197.114 348.5,193.5C 349.518,194.193 350.518,194.859 351.5,195.5 Z"/></g>
<g><path style="opacity:0.994" fill="#616166" d="M 178.5,212.5 C 180.937,212.756 183.271,213.423 185.5,214.5C 188.309,217.235 187.809,219.235 184,220.5C 181.102,219.635 178.602,218.135 176.5,216C 177.305,214.887 177.972,213.721 178.5,212.5 Z"/></g>
<g><path style="opacity:0.51" fill="#a2a2a3" d="M 302.5,215.5 C 301.243,218.427 299.243,220.761 296.5,222.5C 297.757,219.573 299.757,217.239 302.5,215.5 Z"/></g>
<g><path style="opacity:0.592" fill="#89898b" d="M 140.5,219.5 C 140.59,222.152 139.924,224.485 138.5,226.5C 138.41,223.848 139.076,221.515 140.5,219.5 Z"/></g>
<g><path style="opacity:0.518" fill="#9e9da1" d="M 210.5,224.5 C 210.573,226.027 209.906,227.027 208.5,227.5C 208.427,225.973 209.094,224.973 210.5,224.5 Z"/></g>
<g><path style="opacity:0.992" fill="#6a6a6c" d="M 316.5,216.5 C 319.293,217.459 321.293,219.293 322.5,222C 320.012,225.655 317.012,228.822 313.5,231.5C 313.141,229.234 313.808,227.401 315.5,226C 314.289,225.107 314.289,224.274 315.5,223.5C 316.167,224.167 316.833,224.833 317.5,225.5C 318.228,223.807 319.228,222.307 320.5,221C 318.808,219.693 317.475,218.193 316.5,216.5 Z"/></g>
<g><path style="opacity:0.325" fill="#9c9c9d" d="M 361.5,220.5 C 362.768,222.905 363.435,225.572 363.5,228.5C 361.96,226.162 361.294,223.495 361.5,220.5 Z"/></g>
<g><path style="opacity:0.999" fill="#464549" d="M 310.5,209.5 C 310.427,211.027 311.094,212.027 312.5,212.5C 314.167,213.5 315.5,214.833 316.5,216.5C 317.475,218.193 318.808,219.693 320.5,221C 319.228,222.307 318.228,223.807 317.5,225.5C 316.833,224.833 316.167,224.167 315.5,223.5C 314.289,224.274 314.289,225.107 315.5,226C 313.808,227.401 313.141,229.234 313.5,231.5C 302.833,242.833 291.833,253.833 280.5,264.5C 280.44,263.957 280.107,263.624 279.5,263.5C 278.521,266.953 277.021,267.286 275,264.5C 274.781,265.938 274.281,267.271 273.5,268.5C 272.817,268.137 272.15,267.804 271.5,267.5C 270.995,263.4 270.995,259.4 271.5,255.5C 269.901,255.768 268.568,255.434 267.5,254.5C 269.252,252.754 270.585,250.754 271.5,248.5C 273.833,245.5 276.5,242.833 279.5,240.5C 283.234,237.769 286.234,234.436 288.5,230.5C 290.833,227.5 293.5,224.833 296.5,222.5C 299.243,220.761 301.243,218.427 302.5,215.5C 303.5,213.833 304.833,212.5 306.5,211.5C 307.605,210.4 308.938,209.733 310.5,209.5 Z"/></g>
<g><path style="opacity:1" fill="#464549" d="M 246.5,232.5 C 250.513,236.515 254.179,240.848 257.5,245.5C 257.427,247.027 258.094,248.027 259.5,248.5C 259.427,250.027 260.094,251.027 261.5,251.5C 262.222,255.181 264.222,256.181 267.5,254.5C 268.568,255.434 269.901,255.768 271.5,255.5C 270.995,259.4 270.995,263.4 271.5,267.5C 271.649,268.552 271.483,269.552 271,270.5C 268.069,271.569 266.902,273.402 267.5,276C 266.552,276.483 265.552,276.649 264.5,276.5C 264.843,278.483 264.176,279.817 262.5,280.5C 258.192,275.949 253.859,271.282 249.5,266.5C 249.5,264.5 248.5,263.5 246.5,263.5C 240.939,257.392 235.606,251.059 230.5,244.5C 230.414,243.504 230.748,242.671 231.5,242C 230.376,241.751 229.376,241.251 228.5,240.5C 230.998,239.062 233.164,239.396 235,241.5C 235.308,240.692 235.808,240.025 236.5,239.5C 237.425,240.641 238.259,240.641 239,239.5C 239.498,236.518 239.665,233.518 239.5,230.5C 242.079,230.394 244.412,231.061 246.5,232.5 Z"/></g>
<g><path style="opacity:0.42" fill="#9e9ea0" d="M 288.5,230.5 C 286.234,234.436 283.234,237.769 279.5,240.5C 281.766,236.564 284.766,233.231 288.5,230.5 Z"/></g>
<g><path style="opacity:1" fill="#4f4f52" d="M 203.5,233.5 C 202.076,235.725 201.409,238.225 201.5,241C 201.3,246.589 202.467,246.756 205,241.5C 205.865,245.674 205.365,249.674 203.5,253.5C 205.249,254.949 205.416,256.282 204,257.5C 201.572,255.026 201.072,255.526 202.5,259C 204.602,258.744 206.602,258.911 208.5,259.5C 207.304,262.221 205.304,263.387 202.5,263C 198.219,258.273 194.552,253.106 191.5,247.5C 195.178,242.494 199.178,237.827 203.5,233.5 Z"/></g>
<g><path style="opacity:0.102" fill="#adadaf" d="M 153.5,231.5 C 152.724,239.475 152.39,247.475 152.5,255.5C 152.167,255.5 151.833,255.5 151.5,255.5C 151.334,249.158 151.5,242.825 152,236.5C 152.198,234.618 152.698,232.952 153.5,231.5 Z"/></g>
<g><path style="opacity:0.983" fill="#767678" d="M 222.5,242.5 C 220.853,245.473 218.853,248.14 216.5,250.5C 216.844,247.478 218.011,244.812 220,242.5C 220.77,241.402 221.603,241.402 222.5,242.5 Z"/></g>
<g><path style="opacity:0.537" fill="#a6a6a8" d="M 257.5,245.5 C 258.906,245.973 259.573,246.973 259.5,248.5C 258.094,248.027 257.427,247.027 257.5,245.5 Z"/></g>
<g><path style="opacity:0.539" fill="#939295" d="M 174.5,254.5 C 174.5,253.167 174.5,251.833 174.5,250.5C 170.5,250.5 166.5,250.5 162.5,250.5C 165.695,249.764 169.029,249.097 172.5,248.5C 175.341,249.92 176.008,251.92 174.5,254.5 Z"/></g>
<g><path style="opacity:0.458" fill="#949598" d="M 325.5,250.5 C 329.97,249.514 334.637,249.181 339.5,249.5C 339.784,251.415 339.451,253.081 338.5,254.5C 338.5,253.167 338.5,251.833 338.5,250.5C 334.167,250.5 329.833,250.5 325.5,250.5 Z"/></g>
<g><path style="opacity:0.231" fill="#b3b3b4" d="M 259.5,248.5 C 260.906,248.973 261.573,249.973 261.5,251.5C 260.094,251.027 259.427,250.027 259.5,248.5 Z"/></g>
<g><path style="opacity:1" fill="#57585c" d="M 325.5,250.5 C 329.833,250.5 334.167,250.5 338.5,250.5C 338.5,251.833 338.5,253.167 338.5,254.5C 334.689,255.645 330.689,255.812 326.5,255C 325.62,253.644 325.286,252.144 325.5,250.5 Z"/></g>
<g><path style="opacity:1" fill="#636365" d="M 162.5,250.5 C 166.5,250.5 170.5,250.5 174.5,250.5C 174.5,251.833 174.5,253.167 174.5,254.5C 171.024,255.643 167.358,255.81 163.5,255C 161.422,253.73 161.088,252.23 162.5,250.5 Z"/></g>
<g><path style="opacity:0.318" fill="#a9a9ab" d="M 271.5,248.5 C 270.585,250.754 269.252,252.754 267.5,254.5C 264.222,256.181 262.222,255.181 261.5,251.5C 262.794,252.29 263.961,253.29 265,254.5C 267.037,252.294 269.203,250.294 271.5,248.5 Z"/></g>
<g><path style="opacity:0.498" fill="#a4a3b2" d="M 246.5,263.5 C 248.5,263.5 249.5,264.5 249.5,266.5C 248.167,265.833 247.167,264.833 246.5,263.5 Z"/></g>
<g><path style="opacity:0.996" fill="#5f5f61" d="M 280.5,264.5 C 276.076,270.429 271.076,275.929 265.5,281C 264.251,281.74 263.251,281.573 262.5,280.5C 264.176,279.817 264.843,278.483 264.5,276.5C 265.552,276.649 266.552,276.483 267.5,276C 266.902,273.402 268.069,271.569 271,270.5C 271.483,269.552 271.649,268.552 271.5,267.5C 272.15,267.804 272.817,268.137 273.5,268.5C 274.281,267.271 274.781,265.938 275,264.5C 277.021,267.286 278.521,266.953 279.5,263.5C 280.107,263.624 280.44,263.957 280.5,264.5 Z"/></g>
<g><path style="opacity:0.702" fill="#909091" d="M 310.5,285.5 C 311.097,284.861 311.93,284.528 313,284.5C 314.699,284.387 315.866,285.053 316.5,286.5C 314.565,285.85 312.565,285.517 310.5,285.5 Z"/></g>
<g><path style="opacity:0.973" fill="#424245" d="M 310.5,285.5 C 312.565,285.517 314.565,285.85 316.5,286.5C 318.424,288.496 318.59,290.496 317,292.5C 316.329,291.748 315.496,291.414 314.5,291.5C 313.508,291.672 312.842,291.338 312.5,290.5C 311.058,289.18 310.392,287.514 310.5,285.5 Z"/></g>
<g><path style="opacity:0.349" fill="#a6a6a7" d="M 310.5,285.5 C 310.392,287.514 311.058,289.18 312.5,290.5C 311.504,290.586 310.671,290.252 310,289.5C 309.235,287.934 309.402,286.601 310.5,285.5 Z"/></g>
<g><path style="opacity:1" fill="#4a4a4e" d="M 151.5,255.5 C 151.833,255.5 152.167,255.5 152.5,255.5C 155.691,283.557 168.024,306.557 189.5,324.5C 189.973,325.906 190.973,326.573 192.5,326.5C 194.23,327.026 195.564,328.026 196.5,329.5C 195.033,328.708 193.7,328.708 192.5,329.5C 193.093,331.382 193.76,333.215 194.5,335C 192.512,339.825 193.512,343.825 197.5,347C 196.748,347.671 196.414,348.504 196.5,349.5C 188.221,346.202 181.221,341.202 175.5,334.5C 174.089,332.086 172.089,330.419 169.5,329.5C 153.696,313.565 143.363,294.565 138.5,272.5C 140.679,272.84 142.512,273.84 144,275.5C 145,274.167 146,272.833 147,271.5C 148.707,273.909 149.54,276.575 149.5,279.5C 150.675,279.281 151.675,279.614 152.5,280.5C 153.026,282.23 154.026,283.564 155.5,284.5C 156.666,282.635 156.333,280.968 154.5,279.5C 154.987,278.554 155.32,277.554 155.5,276.5C 155.176,274.431 154.342,274.098 153,275.5C 150.891,272.707 151.058,270.041 153.5,267.5C 151.258,267.413 149.925,265.913 149.5,263C 150.86,260.73 151.527,258.23 151.5,255.5 Z"/></g>
<g><path style="opacity:1" fill="#59585c" d="M 187.5,283.5 C 189.922,284.085 191.589,285.585 192.5,288C 188.906,292.145 184.573,293.978 179.5,293.5C 178.572,292.232 178.405,290.899 179,289.5C 181.736,287.248 184.569,285.248 187.5,283.5 Z"/></g>
<g><path style="opacity:0.863" fill="#636365" d="M 358.5,285.5 C 357.458,290.642 355.458,295.309 352.5,299.5C 352.726,295.708 353.56,292.041 355,288.5C 355.72,286.944 356.887,285.944 358.5,285.5 Z"/></g>
<g><path style="opacity:0.984" fill="#706f73" d="M 316.5,286.5 C 318.729,287.055 320.395,288.389 321.5,290.5C 319.512,294.044 317.179,294.377 314.5,291.5C 315.496,291.414 316.329,291.748 317,292.5C 318.59,290.496 318.424,288.496 316.5,286.5 Z"/></g>
<g><path style="opacity:0.259" fill="#a8a6ab" d="M 337.5,294.5 C 337.573,296.027 336.906,297.027 335.5,297.5C 335.427,295.973 336.094,294.973 337.5,294.5 Z"/></g>
<g><path style="opacity:0.188" fill="#bbbbbb" d="M 335.5,297.5 C 335.573,299.027 334.906,300.027 333.5,300.5C 333.427,298.973 334.094,297.973 335.5,297.5 Z"/></g>
<g><path style="opacity:1" fill="#58575a" d="M 352.5,300.5 C 347.621,310.269 341.288,318.936 333.5,326.5C 333.5,325.167 333.5,323.833 333.5,322.5C 334.5,322.5 335.5,322.5 336.5,322.5C 336.5,321.167 336.5,319.833 336.5,318.5C 337.423,319.303 338.423,319.47 339.5,319C 339.167,318 338.833,317 338.5,316C 340,315.167 341.167,314 342,312.5C 342.773,307.818 342.107,307.485 340,311.5C 339.57,308.808 339.737,306.141 340.5,303.5C 342.981,303.323 344.814,304.323 346,306.5C 348.46,305.245 349.627,303.245 349.5,300.5C 350.5,300.5 351.5,300.5 352.5,300.5 Z"/></g>
<g><path style="opacity:0.94" fill="#616164" d="M 297.5,314.5 C 294.737,314.256 292.571,312.923 291,310.5C 290.691,311.766 290.191,312.933 289.5,314C 290.939,314.991 291.939,316.324 292.5,318C 291.587,319.414 291.587,320.914 292.5,322.5C 289.328,319.817 287.495,316.484 287,312.5C 288.351,310.981 289.851,309.648 291.5,308.5C 293.854,310.188 295.854,312.188 297.5,314.5 Z"/></g>
<g><path style="opacity:0.965" fill="#5a5a5d" d="M 209.5,309.5 C 212.571,308.925 214.571,310.091 215.5,313C 214.095,317.558 211.429,321.058 207.5,323.5C 205.214,323.04 203.881,321.707 203.5,319.5C 205.092,315.911 207.092,312.578 209.5,309.5 Z"/></g>
<g><path style="opacity:1" fill="#4c4d50" d="M 297.5,314.5 C 303.072,319.086 302.239,322.419 295,324.5C 293.699,324.361 292.866,323.695 292.5,322.5C 291.587,320.914 291.587,319.414 292.5,318C 291.939,316.324 290.939,314.991 289.5,314C 290.191,312.933 290.691,311.766 291,310.5C 292.571,312.923 294.737,314.256 297.5,314.5 Z"/></g>
<g><path style="opacity:0.016" fill="#aeaeaf" d="M 189.5,324.5 C 191.027,324.427 192.027,325.094 192.5,326.5C 190.973,326.573 189.973,325.906 189.5,324.5 Z"/></g>
<g><path style="opacity:0.451" fill="#a2a3a5" d="M 312.5,323.5 C 311.738,325.262 310.404,326.262 308.5,326.5C 309.262,324.738 310.596,323.738 312.5,323.5 Z"/></g>
<g><path style="opacity:0.6" fill="#9f9fa0" d="M 169.5,329.5 C 172.089,330.419 174.089,332.086 175.5,334.5C 172.911,333.581 170.911,331.914 169.5,329.5 Z"/></g>
<g><path style="opacity:0.733" fill="#5e5e60" d="M 249.5,324.5 C 250.5,324.5 251.5,324.5 252.5,324.5C 252.5,327.833 252.5,331.167 252.5,334.5C 251.5,334.5 250.5,334.5 249.5,334.5C 249.5,331.167 249.5,327.833 249.5,324.5 Z"/></g>
<g><path style="opacity:1" fill="#48474b" d="M 331.5,303.5 C 330.637,304.94 330.637,306.274 331.5,307.5C 330.335,308.584 329.002,309.417 327.5,310C 327.833,310.333 328.167,310.667 328.5,311C 327.552,311.483 326.552,311.649 325.5,311.5C 325.259,314.999 326.092,315.332 328,312.5C 330.333,313.833 332.667,313.833 335,312.5C 335.505,314.518 336.005,316.518 336.5,318.5C 336.5,319.833 336.5,321.167 336.5,322.5C 335.5,322.5 334.5,322.5 333.5,322.5C 333.5,323.833 333.5,325.167 333.5,326.5C 324.308,337.761 312.975,346.094 299.5,351.5C 296.827,351.316 296.16,350.149 297.5,348C 296.363,345.03 294.363,342.864 291.5,341.5C 293.946,340.017 293.612,338.851 290.5,338C 291.766,337.691 292.933,337.191 294,336.5C 295.308,337.151 296.141,336.485 296.5,334.5C 300.223,331.449 304.223,328.782 308.5,326.5C 310.404,326.262 311.738,325.262 312.5,323.5C 319.536,317.465 325.869,310.798 331.5,303.5 Z"/></g>
<g><path style="opacity:1" fill="#6f6f72" d="M 196.5,329.5 C 199.869,331.515 203.202,333.515 206.5,335.5C 205.504,335.414 204.671,335.748 204,336.5C 202.654,333.751 201.32,333.417 200,335.5C 199.373,333.073 198.206,331.073 196.5,329.5 Z"/></g>
<g><path style="opacity:1" fill="#59595b" d="M 206.5,335.5 C 212.577,337.881 218.577,340.215 224.5,342.5C 220.785,342.32 217.118,342.654 213.5,343.5C 211.803,343.101 210.137,342.601 208.5,342C 212.361,341.431 212.361,340.598 208.5,339.5C 207.37,338.378 206.703,337.044 206.5,335.5 Z"/></g>
<g><path style="opacity:0.999" fill="#4d4d50" d="M 296.5,334.5 C 296.141,336.485 295.308,337.151 294,336.5C 292.933,337.191 291.766,337.691 290.5,338C 293.612,338.851 293.946,340.017 291.5,341.5C 294.363,342.864 296.363,345.03 297.5,348C 296.16,350.149 296.827,351.316 299.5,351.5C 288.438,357.963 276.438,361.63 263.5,362.5C 262.833,362.5 262.167,362.5 261.5,362.5C 261.217,361.711 260.717,361.044 260,360.5C 255.861,361.583 251.694,361.416 247.5,360C 250.146,359.503 252.813,359.336 255.5,359.5C 254.959,356.348 255.959,353.848 258.5,352C 262.69,349.699 267.024,348.699 271.5,349C 269,348.625 266.667,347.792 264.5,346.5C 261.692,347.97 258.692,348.803 255.5,349C 257.595,349.556 257.762,350.056 256,350.5C 250.443,348.34 244.943,346.34 239.5,344.5C 259.41,346.016 278.41,342.682 296.5,334.5 Z"/></g>
<g><path style="opacity:0.999" fill="#464549" d="M 196.5,329.5 C 198.206,331.073 199.373,333.073 200,335.5C 201.32,333.417 202.654,333.751 204,336.5C 204.671,335.748 205.504,335.414 206.5,335.5C 206.703,337.044 207.37,338.378 208.5,339.5C 212.361,340.598 212.361,341.431 208.5,342C 210.137,342.601 211.803,343.101 213.5,343.5C 217.118,342.654 220.785,342.32 224.5,342.5C 229.564,342.795 234.564,343.462 239.5,344.5C 244.943,346.34 250.443,348.34 256,350.5C 257.762,350.056 257.595,349.556 255.5,349C 258.692,348.803 261.692,347.97 264.5,346.5C 266.667,347.792 269,348.625 271.5,349C 267.024,348.699 262.69,349.699 258.5,352C 255.959,353.848 254.959,356.348 255.5,359.5C 252.813,359.336 250.146,359.503 247.5,360C 251.694,361.416 255.861,361.583 260,360.5C 260.717,361.044 261.217,361.711 261.5,362.5C 250.484,362.583 239.484,362.249 228.5,361.5C 216.767,360.038 206.1,356.038 196.5,349.5C 196.414,348.504 196.748,347.671 197.5,347C 193.512,343.825 192.512,339.825 194.5,335C 193.76,333.215 193.093,331.382 192.5,329.5C 193.7,328.708 195.033,328.708 196.5,329.5 Z"/></g>
<g><path style="opacity:0.847" fill="#7b7b7e" d="M 228.5,361.5 C 239.484,362.249 250.484,362.583 261.5,362.5C 262.167,362.5 262.833,362.5 263.5,362.5C 259.18,363.166 254.68,363.499 250,363.5C 242.609,363.636 235.443,362.969 228.5,361.5 Z"/></g>
</svg>
